<?xml version="1.0" encoding="utf-8"?>
<!-- Generator: Adobe Illustrator 25.4.1, SVG Export Plug-In . SVG Version: 6.00 Build 0)  -->
<svg version="1.1" id="Layer_1" xmlns="http://www.w3.org/2000/svg" xmlns:xlink="http://www.w3.org/1999/xlink" x="0px" y="0px"
	 viewBox="0 0 350 70" style="enable-background:new 0 0 350 70;" xml:space="preserve">
<style type="text/css">
	.st0{fill:#2B3175;}
	.st1{fill:#808184;}
	.st2{fill:#2C3074;}
	.st3{fill:#FFFFFF;}
	.st4{fill:#FCFDFF;}
</style>
<g>
	<g>
		<path class="st0" d="M95.67,45.39c-1.09,0-2.25,0.43-2.25,1.47c0,0.93,1.06,1.2,2.32,1.41c1.71,0.27,3.4,0.61,3.4,2.55
			c-0.01,1.92-1.85,2.55-3.49,2.55c-1.52,0-2.96-0.55-3.62-1.98l0.88-0.51c0.55,1.02,1.7,1.51,2.75,1.51c1.04,0,2.42-0.33,2.42-1.59
			c0.01-1.06-1.19-1.37-2.47-1.57c-1.65-0.26-3.26-0.64-3.26-2.37c-0.02-1.79,1.8-2.4,3.28-2.4c1.27,0,2.49,0.26,3.24,1.55
			l-0.81,0.5C97.62,45.74,96.63,45.4,95.67,45.39z"/>
		<path class="st0" d="M108.47,44.63v5.14c0,2.37-1.6,3.57-3.48,3.57c-1.82,0-3.51-1.17-3.51-3.57v-5.14h1.05v5.14
			c0,1.7,1.14,2.6,2.46,2.6s2.42-0.93,2.42-2.61v-5.14h1.04L108.47,44.63z"/>
		<path class="st0" d="M112.43,53.19h-1.05v-8.57h3.89c3.94,0,3.94,5.79,0,5.8h-2.84V53.19z M115.27,45.61h-2.84v3.82h2.84
			C117.79,49.43,117.79,45.61,115.27,45.61z"/>
		<path class="st0" d="M120.49,44.62h6.02v0.98h-4.97v2.68h4.76v0.99h-4.76v2.9h5.16v1.02h-6.22V44.62z"/>
		<path class="st0" d="M132.34,50.1h-2.08v3.08h-1.06v-8.57h3.89c1.93,0,2.9,1.35,2.9,2.74c0.01,1.3-0.7,2.51-2.46,2.66l2.83,3.17
			h-1.35L132.34,50.1z M134.92,47.38c0.01-0.86-0.6-1.81-1.84-1.81h-2.83v3.57h2.78C134.32,49.15,134.92,48.35,134.92,47.38z"/>
		<path class="st0" d="M149.33,45.39c-1.09,0-2.25,0.43-2.25,1.47c0,0.93,1.06,1.2,2.32,1.41c1.71,0.27,3.4,0.61,3.4,2.55
			c-0.01,1.92-1.85,2.55-3.49,2.55c-1.52,0-2.96-0.55-3.62-1.98l0.88-0.51c0.55,1.02,1.7,1.51,2.75,1.51c1.04,0,2.42-0.33,2.42-1.59
			c0.01-1.06-1.19-1.37-2.47-1.57c-1.65-0.26-3.26-0.64-3.26-2.37c-0.02-1.79,1.8-2.4,3.28-2.4c1.27,0,2.49,0.26,3.24,1.55
			l-0.81,0.5C151.28,45.74,150.29,45.4,149.33,45.39z"/>
		<path class="st0" d="M156.29,53.19h-1.05v-8.57h3.89c3.94,0,3.94,5.79,0,5.8h-2.84V53.19z M159.12,45.61h-2.84v3.82h2.84
			C161.65,49.43,161.65,45.61,159.12,45.61z"/>
		<path class="st0" d="M164.34,44.62h6.02v0.98h-4.97v2.68h4.76v0.99h-4.76v2.9h5.16v1.02h-6.22V44.62z"/>
		<path class="st0" d="M176.89,53.32c-3.02,0-4.46-2.09-4.47-4.37c-0.02-2.26,1.46-4.47,4.47-4.47c1.14,0,2.26,0.43,3.13,1.29
			l-0.73,0.69c-0.66-0.65-1.53-0.96-2.4-0.96c-2.3,0-3.42,1.66-3.4,3.44c0.02,1.74,1.09,3.37,3.4,3.37c0.87,0,1.79-0.34,2.44-0.99
			l0.75,0.73C179.2,52.9,178.06,53.32,176.89,53.32z"/>
		<path class="st0" d="M182.37,44.62h1.06v8.57h-1.06V44.62z"/>
		<path class="st0" d="M190.55,44.62l3.84,8.57h-1.15l-0.84-1.88h-4.9l-0.83,1.88h-1.16l3.84-8.57H190.55z M189.95,45.7l-2.03,4.63
			h4.06L189.95,45.7z"/>
		<path class="st0" d="M197.54,52.19h4.66v0.99h-5.73v-8.57h1.07V52.19z"/>
		<path class="st0" d="M204.29,44.62h1.07v8.57h-1.07V44.62z"/>
		<path class="st0" d="M207.42,45.57v-0.96h6.9v0.96h-2.93v7.61h-1.05v-7.61H207.42z"/>
		<path class="st0" d="M215.55,44.66v-0.04h1.3l2.57,4.06l2.63-4.06h1.3v0.04l-3.38,5.05v3.48h-1.1v-3.48L215.55,44.66z"/>
		<path class="st0" d="M232.75,44.62h6.02v0.98h-4.97v2.68h4.76v0.99h-4.76v2.9h5.16v1.02h-6.22V44.62z"/>
		<path class="st0" d="M240.6,44.66v-0.04h1.3l2.57,4.06l2.63-4.06h1.3v0.04l-3.38,5.05v3.48h-1.1v-3.48L240.6,44.66z"/>
		<path class="st0" d="M250.51,44.62h6.02v0.98h-4.97v2.68h4.76v0.99h-4.76v2.9h5.16v1.02h-6.22V44.62z"/>
		<path class="st0" d="M272.92,49.32h-4.89v3.87h-1.07v-8.57h1.07v3.71h4.89v-3.71h1.07v8.57h-1.07V49.32z"/>
		<path class="st0" d="M285.15,48.93c-0.01,2.24-1.41,4.43-4.35,4.43c-2.94,0-4.36-2.18-4.36-4.43c0-2.48,1.66-4.46,4.37-4.46
			C283.71,44.48,285.16,46.66,285.15,48.93z M280.81,45.45c-2.18,0-3.3,1.6-3.3,3.48c0,1.74,1.05,3.43,3.3,3.43s3.27-1.74,3.27-3.43
			C284.09,47.19,283.05,45.47,280.81,45.45z"/>
		<path class="st0" d="M290.58,45.39c-1.09,0-2.25,0.43-2.25,1.47c0,0.93,1.06,1.2,2.32,1.41c1.71,0.27,3.4,0.61,3.4,2.55
			c-0.01,1.92-1.85,2.55-3.49,2.55c-1.52,0-2.96-0.55-3.62-1.98l0.88-0.51c0.55,1.02,1.7,1.51,2.75,1.51c1.04,0,2.42-0.33,2.42-1.59
			c0.01-1.06-1.19-1.37-2.47-1.57c-1.65-0.26-3.26-0.64-3.26-2.37c-0.02-1.79,1.8-2.4,3.28-2.4c1.27,0,2.49,0.26,3.24,1.55
			l-0.81,0.5C292.53,45.74,291.54,45.4,290.58,45.39z"/>
		<path class="st0" d="M297.54,53.19h-1.05v-8.57h3.89c3.94,0,3.94,5.79,0,5.8h-2.84V53.19z M300.38,45.61h-2.84v3.82h2.84
			C302.9,49.43,302.9,45.61,300.38,45.61z"/>
		<path class="st0" d="M305.59,44.62h1.07v8.57h-1.07V44.62z"/>
		<path class="st0" d="M308.73,45.57v-0.96h6.9v0.96h-2.93v7.61h-1.05v-7.61H308.73z"/>
		<path class="st0" d="M321.03,44.62l3.84,8.57h-1.15l-0.85-1.88h-4.89l-0.83,1.88h-1.16l3.84-8.57H321.03z M320.43,45.7l-2.03,4.63
			h4.06L320.43,45.7z"/>
		<path class="st0" d="M328.01,52.19h4.66v0.99h-5.73v-8.57h1.07V52.19z"/>
		<path class="st0" d="M337.45,45.38c-1.09,0-2.25,0.43-2.25,1.47c0,0.93,1.06,1.2,2.32,1.41c1.71,0.27,3.4,0.61,3.4,2.55
			c-0.01,1.92-1.85,2.55-3.49,2.55c-1.52,0-2.96-0.55-3.62-1.98l0.88-0.51c0.55,1.02,1.7,1.51,2.75,1.51c1.04,0,2.42-0.33,2.42-1.59
			c0.01-1.06-1.19-1.37-2.47-1.57c-1.65-0.26-3.26-0.64-3.26-2.37c-0.02-1.79,1.8-2.4,3.28-2.4c1.27,0,2.49,0.26,3.24,1.55
			l-0.81,0.5C339.4,45.73,338.4,45.39,337.45,45.38z"/>
	</g>
	<rect x="12.77" y="9.28" class="st1" width="63.78" height="51.44"/>
	<path class="st2" d="M83.32,36.06c-23.39,21.04-49.86,25.21-77.31-0.4C20.68,20.64,53.32,1.45,83.32,36.06"/>
	<path class="st3" d="M84.76,34.8C73.56,21.89,61.01,15.13,47.44,14.73C26.08,14.1,9.28,29.58,4.65,34.33l-1.37,1.39l1.42,1.34
		c12.98,12.1,26.42,18.17,39.93,18.17c13.35,0,26.81-5.92,39.95-17.75L86,36.23L84.76,34.8z M6.01,35.65
		c14.67-15.02,47.3-34.2,77.31,0.4C59.93,57.09,33.46,61.27,6.01,35.65"/>
	<path class="st4" d="M33.58,31.63h22.4c-0.31-3.04-1.22-5.31-2.72-6.81c-2.18-2.18-4.96-3.28-8.34-3.28
		c-3.05,0-5.64,0.92-7.79,2.73C34.98,26.09,33.8,28.54,33.58,31.63 M55.93,41.25l7,0.77c-1.17,3.75-3.27,6.58-6.33,8.48
		c-3.06,1.9-6.84,2.86-11.36,2.86c-5.69,0-10.29-1.55-13.81-4.65c-3.52-3.1-5.28-7.57-5.28-13.41c0-6.07,1.78-10.69,5.32-13.88
		c3.55-3.19,8.05-4.78,13.48-4.78c5.2,0,9.53,1.56,13,4.69c3.47,3.14,5.21,7.67,5.21,13.6l-0.04,1.59H33.16
		c0.28,3.95,1.56,6.92,3.83,8.93c2.27,2.01,5.04,3.01,8.3,3.01C50.39,48.46,53.94,46.06,55.93,41.25"/>
	<g>
		<polygon class="st2" points="93.82,31.06 90.76,31.06 90.76,16.9 85.36,16.9 85.36,14.34 99.21,14.34 99.21,16.9 93.82,16.9 		"/>
		<polygon class="st2" points="104.64,21.23 112.4,21.23 112.4,14.34 115.47,14.34 115.47,31.06 112.4,31.06 112.4,23.79 
			104.64,23.79 104.64,31.06 101.59,31.06 101.59,14.34 104.64,14.34 		"/>
		<polygon class="st2" points="122.52,28.5 130.75,28.5 130.75,31.06 119.47,31.06 119.47,14.34 130.3,14.34 130.3,16.9 
			122.52,16.9 122.52,21.22 129.2,21.22 129.2,23.79 122.52,23.79 		"/>
		<polygon class="st2" points="142.34,28.5 150.56,28.5 150.56,31.06 139.27,31.06 139.27,14.34 150.11,14.34 150.11,16.9 
			142.34,16.9 142.34,21.22 149.01,21.22 149.01,23.79 142.34,23.79 		"/>
		<polygon class="st2" points="159.95,21.54 164.4,14.34 167.81,14.34 161.47,24.32 161.47,31.06 158.4,31.06 158.4,24.32 
			152.06,14.34 155.46,14.34 159.92,21.54 		"/>
		<polygon class="st2" points="173.11,28.5 181.34,28.5 181.34,31.06 170.05,31.06 170.05,14.34 180.89,14.34 180.89,16.9 
			173.11,16.9 173.11,21.22 179.79,21.22 179.79,23.79 173.11,23.79 		"/>
		<polygon class="st2" points="192.92,31.06 189.86,31.06 189.86,14.34 200.52,14.34 200.52,16.9 192.92,16.9 192.92,21.22 
			199.41,21.22 199.41,23.79 192.92,23.79 		"/>
		<path class="st2" d="M215.59,22.7c0-1.02-0.12-1.91-0.37-2.67c-0.25-0.77-0.6-1.4-1.04-1.91c-0.44-0.51-0.97-0.89-1.57-1.14
			c-0.61-0.25-1.28-0.37-2.01-0.37c-0.72,0-1.39,0.12-2,0.37c-0.61,0.25-1.13,0.63-1.58,1.14c-0.44,0.5-0.78,1.14-1.03,1.91
			c-0.25,0.76-0.38,1.65-0.38,2.67c0,1.02,0.13,1.91,0.38,2.67c0.25,0.77,0.59,1.4,1.03,1.9c0.45,0.5,0.97,0.89,1.58,1.14
			c0.61,0.25,1.27,0.37,2,0.37c0.73,0,1.39-0.13,2.01-0.37c0.6-0.26,1.13-0.64,1.57-1.14c0.44-0.5,0.79-1.13,1.04-1.9
			C215.47,24.61,215.59,23.72,215.59,22.7 M218.75,22.7c0,1.27-0.18,2.44-0.54,3.5c-0.36,1.06-0.89,1.98-1.59,2.75
			c-0.7,0.76-1.55,1.36-2.56,1.79c-1.01,0.42-2.17,0.64-3.46,0.64c-1.3,0-2.44-0.22-3.45-0.64c-1.01-0.43-1.87-1.02-2.56-1.79
			c-0.69-0.77-1.22-1.68-1.59-2.75c-0.36-1.07-0.54-2.24-0.54-3.5c0-1.28,0.18-2.45,0.54-3.51c0.37-1.06,0.89-1.98,1.59-2.75
			c0.7-0.77,1.55-1.36,2.56-1.78c1.01-0.43,2.16-0.64,3.45-0.64c1.29,0,2.45,0.21,3.46,0.64c1.01,0.42,1.86,1.02,2.56,1.78
			c0.7,0.77,1.23,1.68,1.59,2.75C218.57,20.26,218.75,21.42,218.75,22.7"/>
		<path class="st2" d="M228.93,31.38c-0.88,0-1.66-0.09-2.37-0.26c-0.69-0.16-1.32-0.41-1.85-0.73c-0.53-0.33-1-0.72-1.36-1.18
			c-0.38-0.46-0.68-0.98-0.9-1.57c-0.18-0.46-0.32-0.99-0.39-1.55c-0.08-0.56-0.12-1.2-0.12-1.9v-9.85H225v9.57
			c0,1.18,0.14,2.11,0.42,2.77c0.32,0.74,0.79,1.28,1.39,1.61c0.61,0.33,1.33,0.49,2.15,0.49c0.83,0,1.55-0.17,2.15-0.49
			c0.61-0.33,1.07-0.86,1.39-1.61c0.28-0.66,0.42-1.59,0.42-2.77v-9.57H236v9.85c0,0.7-0.04,1.34-0.13,1.9
			c-0.08,0.56-0.21,1.09-0.39,1.55c-0.23,0.59-0.53,1.11-0.91,1.57c-0.38,0.46-0.84,0.85-1.38,1.18c-0.55,0.32-1.18,0.57-1.88,0.73
			C230.59,31.29,229.8,31.38,228.93,31.38"/>
		<path class="st2" d="M248.65,22.11c1.2,1.72,2.18,3.23,2.92,4.55h0.08c-0.1-2.17-0.15-3.76-0.15-4.74v-7.57h3.06v16.72h-3.21
			l-5.46-7.7c-0.96-1.33-1.95-2.87-2.97-4.63h-0.08c0.11,2.05,0.15,3.64,0.15,4.76v7.57h-3.06V14.34h3.21L248.65,22.11z"/>
		<path class="st2" d="M262.88,28.5c1.79,0,3.18-0.25,4.2-0.73c0.89-0.44,1.57-1.08,2.03-1.92c0.46-0.84,0.69-1.92,0.69-3.23
			c0-0.68-0.08-1.3-0.22-1.85c-0.15-0.55-0.36-1.03-0.65-1.47c-0.29-0.43-0.63-0.79-1.03-1.11c-0.4-0.3-0.86-0.56-1.37-0.76
			c-0.47-0.18-1-0.31-1.59-0.4c-0.58-0.09-1.23-0.13-1.96-0.13h-1.35v11.6H262.88z M258.55,31.06V14.34h4.43
			c0.39,0,0.78,0.01,1.2,0.03c0.39,0.02,0.8,0.06,1.18,0.12c0.38,0.05,0.76,0.11,1.11,0.18c0.36,0.07,0.69,0.16,0.99,0.26
			c0.89,0.28,1.68,0.66,2.36,1.15c0.68,0.48,1.25,1.06,1.72,1.71c0.47,0.66,0.82,1.39,1.05,2.21c0.25,0.81,0.36,1.69,0.36,2.64
			c0,0.9-0.1,1.74-0.3,2.53c-0.2,0.79-0.51,1.51-0.91,2.16c-0.41,0.65-0.93,1.22-1.55,1.72c-0.62,0.49-1.35,0.89-2.21,1.21
			c-0.71,0.27-1.51,0.47-2.41,0.6c-0.9,0.13-1.91,0.2-3.04,0.2H258.55z"/>
		<path class="st2" d="M282.6,18.36c-0.59,1.75-1.11,3.21-1.57,4.39l-0.57,1.49h4.33l-0.57-1.49c-0.45-1.19-0.97-2.64-1.56-4.39
			H282.6z M285.77,26.8h-6.3l-1.64,4.26h-3.25l6.63-16.72h2.8l6.64,16.72h-3.24L285.77,26.8z"/>
		<polygon class="st2" points="298.47,31.06 295.4,31.06 295.4,16.9 290.01,16.9 290.01,14.34 303.86,14.34 303.86,16.9 
			298.47,16.9 		"/>
		<rect x="306.23" y="14.34" class="st2" width="3.06" height="16.72"/>
		<path class="st2" d="M325.68,22.7c0-1.02-0.12-1.91-0.37-2.67c-0.26-0.77-0.6-1.4-1.04-1.91c-0.44-0.51-0.97-0.89-1.58-1.14
			c-0.61-0.25-1.27-0.37-1.99-0.37c-0.73,0-1.39,0.12-2.01,0.37c-0.61,0.25-1.13,0.63-1.57,1.14c-0.44,0.5-0.79,1.14-1.04,1.91
			c-0.25,0.76-0.37,1.65-0.37,2.67c0,1.02,0.12,1.91,0.37,2.67c0.25,0.77,0.6,1.4,1.04,1.9c0.44,0.5,0.97,0.89,1.57,1.14
			c0.61,0.25,1.28,0.37,2.01,0.37c0.72,0,1.39-0.13,1.99-0.37c0.61-0.26,1.14-0.64,1.58-1.14c0.44-0.5,0.78-1.13,1.04-1.9
			C325.56,24.61,325.68,23.72,325.68,22.7 M328.84,22.7c0,1.27-0.18,2.44-0.55,3.5c-0.36,1.06-0.89,1.98-1.58,2.75
			c-0.7,0.76-1.55,1.36-2.57,1.79c-1.01,0.42-2.16,0.64-3.45,0.64c-1.3,0-2.45-0.22-3.46-0.64c-1.01-0.43-1.87-1.02-2.56-1.79
			c-0.7-0.77-1.22-1.68-1.58-2.75c-0.37-1.07-0.55-2.24-0.55-3.5c0-1.28,0.18-2.45,0.55-3.51c0.36-1.06,0.88-1.98,1.58-2.75
			c0.69-0.77,1.55-1.36,2.56-1.78c1.01-0.43,2.16-0.64,3.46-0.64c1.29,0,2.44,0.21,3.45,0.64c1.03,0.42,1.87,1.02,2.57,1.78
			c0.69,0.77,1.23,1.68,1.58,2.75C328.67,20.26,328.84,21.42,328.84,22.7"/>
		<path class="st2" d="M340.82,22.11c1.2,1.72,2.17,3.23,2.92,4.55h0.08c-0.11-2.17-0.15-3.76-0.15-4.74v-7.57h3.06v16.72h-3.21
			l-5.45-7.7c-0.96-1.33-1.95-2.87-2.97-4.63h-0.07c0.1,2.05,0.15,3.64,0.15,4.76v7.57h-3.07V14.34h3.21L340.82,22.11z"/>
	</g>
</g>
</svg>
